<mxfile host="app.diagrams.net" agent="Mozilla/5.0 (Macintosh; Intel Mac OS X 10_15_7) AppleWebKit/605.1.15 (KHTML, like Gecko) Version/16.5 Safari/605.1.15" version="27.0.9">
  <diagram name="Страница — 1" id="oIGkv35JSirXxDSVPZw_">
    <mxGraphModel dx="969" dy="-588" grid="1" gridSize="10" guides="1" tooltips="1" connect="1" arrows="1" fold="1" page="1" pageScale="1" pageWidth="827" pageHeight="1169" math="0" shadow="0">
      <root>
        <mxCell id="0" />
        <mxCell id="1" parent="0" />
        <mxCell id="ZmkryA6pYVP38JDTjNkh-118" value="Начало" style="html=1;dashed=0;whiteSpace=wrap;shape=mxgraph.dfd.start" vertex="1" parent="1">
          <mxGeometry x="320" y="1270" width="160" height="30" as="geometry" />
        </mxCell>
        <mxCell id="ZmkryA6pYVP38JDTjNkh-119" value="ems, cont, hold" style="shape=parallelogram;perimeter=parallelogramPerimeter;whiteSpace=wrap;html=1;dashed=0;" vertex="1" parent="1">
          <mxGeometry x="320" y="1330" width="160" height="40" as="geometry" />
        </mxCell>
        <mxCell id="ZmkryA6pYVP38JDTjNkh-120" value="" style="endArrow=none;html=1;rounded=0;entryX=0.5;entryY=0.5;entryDx=0;entryDy=15;entryPerimeter=0;exitX=0.5;exitY=0;exitDx=0;exitDy=0;" edge="1" parent="1" source="ZmkryA6pYVP38JDTjNkh-119" target="ZmkryA6pYVP38JDTjNkh-118">
          <mxGeometry width="50" height="50" relative="1" as="geometry">
            <mxPoint x="420" y="1420" as="sourcePoint" />
            <mxPoint x="470" y="1370" as="targetPoint" />
          </mxGeometry>
        </mxCell>
        <mxCell id="ZmkryA6pYVP38JDTjNkh-121" value="" style="endArrow=none;html=1;rounded=0;entryX=0.5;entryY=0.5;entryDx=0;entryDy=15;entryPerimeter=0;exitX=0.5;exitY=0;exitDx=0;exitDy=0;" edge="1" parent="1">
          <mxGeometry width="50" height="50" relative="1" as="geometry">
            <mxPoint x="400" y="1399.9999999999998" as="sourcePoint" />
            <mxPoint x="399.5" y="1370" as="targetPoint" />
          </mxGeometry>
        </mxCell>
        <mxCell id="ZmkryA6pYVP38JDTjNkh-124" value="maxDistance = -1" style="rounded=0;whiteSpace=wrap;html=1;" vertex="1" parent="1">
          <mxGeometry x="320" y="1400" width="160" height="40" as="geometry" />
        </mxCell>
        <mxCell id="ZmkryA6pYVP38JDTjNkh-126" value="Контейнер&amp;nbsp;&lt;div&gt;помещается в&amp;nbsp;&lt;/div&gt;&lt;div&gt;ems&lt;/div&gt;" style="rhombus;whiteSpace=wrap;html=1;" vertex="1" parent="1">
          <mxGeometry x="320" y="1470" width="160" height="60" as="geometry" />
        </mxCell>
        <mxCell id="ZmkryA6pYVP38JDTjNkh-127" value="" style="endArrow=none;html=1;rounded=0;entryX=0.5;entryY=0.5;entryDx=0;entryDy=15;entryPerimeter=0;exitX=0.5;exitY=0;exitDx=0;exitDy=0;" edge="1" parent="1">
          <mxGeometry width="50" height="50" relative="1" as="geometry">
            <mxPoint x="400.08" y="1469.9999999999998" as="sourcePoint" />
            <mxPoint x="399.58" y="1440" as="targetPoint" />
          </mxGeometry>
        </mxCell>
        <mxCell id="ZmkryA6pYVP38JDTjNkh-128" value="x, y, z - координаты дальнего угла контейнера в ems от начала координат&lt;div&gt;maxDistance = x&lt;sup&gt;2&lt;/sup&gt; + y&lt;sup&gt;2&lt;/sup&gt; + z&lt;sup&gt;2&lt;/sup&gt;&lt;/div&gt;" style="rounded=0;whiteSpace=wrap;html=1;" vertex="1" parent="1">
          <mxGeometry x="470" y="1510" width="180" height="70" as="geometry" />
        </mxCell>
        <mxCell id="ZmkryA6pYVP38JDTjNkh-129" value="" style="endArrow=none;html=1;rounded=0;entryX=1;entryY=0.5;entryDx=0;entryDy=0;exitX=0.5;exitY=0;exitDx=0;exitDy=0;" edge="1" parent="1" source="ZmkryA6pYVP38JDTjNkh-128">
          <mxGeometry width="50" height="50" relative="1" as="geometry">
            <mxPoint x="370" y="1670" as="sourcePoint" />
            <mxPoint x="480" y="1500" as="targetPoint" />
            <Array as="points">
              <mxPoint x="560" y="1500" />
              <mxPoint x="480" y="1500" />
            </Array>
          </mxGeometry>
        </mxCell>
        <mxCell id="ZmkryA6pYVP38JDTjNkh-130" value="" style="endArrow=none;html=1;rounded=0;entryX=0;entryY=0.5;entryDx=0;entryDy=0;" edge="1" parent="1">
          <mxGeometry width="50" height="50" relative="1" as="geometry">
            <mxPoint x="400" y="1590" as="sourcePoint" />
            <mxPoint x="320" y="1500" as="targetPoint" />
            <Array as="points">
              <mxPoint x="280" y="1590" />
              <mxPoint x="280" y="1500" />
            </Array>
          </mxGeometry>
        </mxCell>
        <mxCell id="ZmkryA6pYVP38JDTjNkh-131" value="да" style="text;html=1;align=center;verticalAlign=middle;whiteSpace=wrap;rounded=0;" vertex="1" parent="1">
          <mxGeometry x="470" y="1470" width="60" height="30" as="geometry" />
        </mxCell>
        <mxCell id="ZmkryA6pYVP38JDTjNkh-137" value="" style="endArrow=none;html=1;rounded=0;entryX=0.5;entryY=1;entryDx=0;entryDy=0;exitX=0.5;exitY=1;exitDx=0;exitDy=0;" edge="1" parent="1" target="ZmkryA6pYVP38JDTjNkh-128">
          <mxGeometry width="50" height="50" relative="1" as="geometry">
            <mxPoint x="400" y="1620" as="sourcePoint" />
            <mxPoint x="590" y="1570" as="targetPoint" />
            <Array as="points">
              <mxPoint x="400" y="1590" />
              <mxPoint x="560" y="1590" />
            </Array>
          </mxGeometry>
        </mxCell>
        <mxCell id="ZmkryA6pYVP38JDTjNkh-138" value="Повернуть контейнер&lt;div&gt;cont.length = cont.width&lt;/div&gt;&lt;div&gt;cont.width = cont.length&lt;br&gt;&lt;/div&gt;" style="rounded=0;whiteSpace=wrap;html=1;" vertex="1" parent="1">
          <mxGeometry x="320" y="1620" width="160" height="50" as="geometry" />
        </mxCell>
        <mxCell id="ZmkryA6pYVP38JDTjNkh-139" value="Контейнер&amp;nbsp;&lt;div&gt;помещается в&amp;nbsp;&lt;/div&gt;&lt;div&gt;ems&lt;/div&gt;" style="rhombus;whiteSpace=wrap;html=1;" vertex="1" parent="1">
          <mxGeometry x="320" y="1700" width="160" height="60" as="geometry" />
        </mxCell>
        <mxCell id="ZmkryA6pYVP38JDTjNkh-140" value="x1, y1, z1 - координаты дальнего угла контейнера в ems от начала координат&lt;div&gt;d = x1&lt;sup&gt;2&lt;/sup&gt; + y1&lt;sup&gt;2&lt;/sup&gt; + z1&lt;sup&gt;2&lt;/sup&gt;&lt;/div&gt;" style="rounded=0;whiteSpace=wrap;html=1;" vertex="1" parent="1">
          <mxGeometry x="470" y="1740" width="180" height="70" as="geometry" />
        </mxCell>
        <mxCell id="ZmkryA6pYVP38JDTjNkh-141" value="" style="endArrow=none;html=1;rounded=0;entryX=1;entryY=0.5;entryDx=0;entryDy=0;exitX=0.5;exitY=0;exitDx=0;exitDy=0;" edge="1" parent="1" source="ZmkryA6pYVP38JDTjNkh-140">
          <mxGeometry width="50" height="50" relative="1" as="geometry">
            <mxPoint x="370" y="1900" as="sourcePoint" />
            <mxPoint x="480" y="1730" as="targetPoint" />
            <Array as="points">
              <mxPoint x="560" y="1730" />
              <mxPoint x="480" y="1730" />
            </Array>
          </mxGeometry>
        </mxCell>
        <mxCell id="ZmkryA6pYVP38JDTjNkh-142" value="" style="endArrow=none;html=1;rounded=0;entryX=0;entryY=0.5;entryDx=0;entryDy=0;" edge="1" parent="1">
          <mxGeometry width="50" height="50" relative="1" as="geometry">
            <mxPoint x="560" y="1830" as="sourcePoint" />
            <mxPoint x="320" y="1730" as="targetPoint" />
            <Array as="points">
              <mxPoint x="280" y="1830" />
              <mxPoint x="280" y="1730" />
            </Array>
          </mxGeometry>
        </mxCell>
        <mxCell id="ZmkryA6pYVP38JDTjNkh-143" value="да" style="text;html=1;align=center;verticalAlign=middle;whiteSpace=wrap;rounded=0;" vertex="1" parent="1">
          <mxGeometry x="470" y="1700" width="60" height="30" as="geometry" />
        </mxCell>
        <mxCell id="ZmkryA6pYVP38JDTjNkh-144" value="d &amp;gt; maxDistance" style="rhombus;whiteSpace=wrap;html=1;" vertex="1" parent="1">
          <mxGeometry x="480" y="1840" width="160" height="60" as="geometry" />
        </mxCell>
        <mxCell id="ZmkryA6pYVP38JDTjNkh-145" value="x, y, z = x1, y1, z1" style="rounded=0;whiteSpace=wrap;html=1;" vertex="1" parent="1">
          <mxGeometry x="640" y="1890" width="140" height="40" as="geometry" />
        </mxCell>
        <mxCell id="ZmkryA6pYVP38JDTjNkh-146" value="" style="endArrow=none;html=1;rounded=0;entryX=1;entryY=0.5;entryDx=0;entryDy=0;exitX=0.5;exitY=0;exitDx=0;exitDy=0;" edge="1" parent="1" source="ZmkryA6pYVP38JDTjNkh-145">
          <mxGeometry width="50" height="50" relative="1" as="geometry">
            <mxPoint x="530" y="2040" as="sourcePoint" />
            <mxPoint x="640" y="1870" as="targetPoint" />
            <Array as="points">
              <mxPoint x="710" y="1870" />
              <mxPoint x="640" y="1870" />
            </Array>
          </mxGeometry>
        </mxCell>
        <mxCell id="ZmkryA6pYVP38JDTjNkh-147" value="" style="endArrow=none;html=1;rounded=0;entryX=0;entryY=0.5;entryDx=0;entryDy=0;" edge="1" parent="1">
          <mxGeometry width="50" height="50" relative="1" as="geometry">
            <mxPoint x="560" y="1940" as="sourcePoint" />
            <mxPoint x="480" y="1870" as="targetPoint" />
            <Array as="points">
              <mxPoint x="440" y="1940" />
              <mxPoint x="440" y="1870" />
            </Array>
          </mxGeometry>
        </mxCell>
        <mxCell id="ZmkryA6pYVP38JDTjNkh-148" value="да" style="text;html=1;align=center;verticalAlign=middle;whiteSpace=wrap;rounded=0;" vertex="1" parent="1">
          <mxGeometry x="630" y="1840" width="60" height="30" as="geometry" />
        </mxCell>
        <mxCell id="ZmkryA6pYVP38JDTjNkh-151" value="" style="endArrow=none;html=1;rounded=0;entryX=0.5;entryY=0.5;entryDx=0;entryDy=15;entryPerimeter=0;exitX=0.5;exitY=0;exitDx=0;exitDy=0;" edge="1" parent="1" source="ZmkryA6pYVP38JDTjNkh-144">
          <mxGeometry width="50" height="50" relative="1" as="geometry">
            <mxPoint x="560" y="1830" as="sourcePoint" />
            <mxPoint x="560" y="1810" as="targetPoint" />
          </mxGeometry>
        </mxCell>
        <mxCell id="ZmkryA6pYVP38JDTjNkh-153" value="" style="endArrow=none;html=1;rounded=0;entryX=0.5;entryY=1;entryDx=0;entryDy=0;" edge="1" parent="1">
          <mxGeometry width="50" height="50" relative="1" as="geometry">
            <mxPoint x="400" y="2020" as="sourcePoint" />
            <mxPoint x="710" y="1930" as="targetPoint" />
            <Array as="points">
              <mxPoint x="400" y="1960" />
              <mxPoint x="560" y="1960" />
              <mxPoint x="560" y="1940" />
              <mxPoint x="710" y="1940" />
            </Array>
          </mxGeometry>
        </mxCell>
        <mxCell id="ZmkryA6pYVP38JDTjNkh-154" value="maxDistance != -1" style="rhombus;whiteSpace=wrap;html=1;" vertex="1" parent="1">
          <mxGeometry x="320" y="1970" width="160" height="60" as="geometry" />
        </mxCell>
        <mxCell id="ZmkryA6pYVP38JDTjNkh-155" value="" style="endArrow=none;html=1;rounded=0;exitX=0.5;exitY=0;exitDx=0;exitDy=0;" edge="1" parent="1">
          <mxGeometry width="50" height="50" relative="1" as="geometry">
            <mxPoint x="400.08" y="1970" as="sourcePoint" />
            <mxPoint x="400" y="1960" as="targetPoint" />
          </mxGeometry>
        </mxCell>
        <mxCell id="ZmkryA6pYVP38JDTjNkh-157" value="" style="endArrow=none;html=1;rounded=0;entryX=1;entryY=0.5;entryDx=0;entryDy=0;exitX=0.5;exitY=0;exitDx=0;exitDy=0;" edge="1" parent="1">
          <mxGeometry width="50" height="50" relative="1" as="geometry">
            <mxPoint x="560" y="2010" as="sourcePoint" />
            <mxPoint x="480" y="2000" as="targetPoint" />
            <Array as="points">
              <mxPoint x="560" y="2000" />
              <mxPoint x="480" y="2000" />
            </Array>
          </mxGeometry>
        </mxCell>
        <mxCell id="ZmkryA6pYVP38JDTjNkh-158" value="" style="endArrow=none;html=1;rounded=0;entryX=0;entryY=0.5;entryDx=0;entryDy=0;" edge="1" parent="1">
          <mxGeometry width="50" height="50" relative="1" as="geometry">
            <mxPoint x="400" y="2090" as="sourcePoint" />
            <mxPoint x="320" y="2000" as="targetPoint" />
            <Array as="points">
              <mxPoint x="280" y="2090" />
              <mxPoint x="280" y="2000" />
            </Array>
          </mxGeometry>
        </mxCell>
        <mxCell id="ZmkryA6pYVP38JDTjNkh-159" value="да" style="text;html=1;align=center;verticalAlign=middle;whiteSpace=wrap;rounded=0;" vertex="1" parent="1">
          <mxGeometry x="470" y="1970" width="60" height="30" as="geometry" />
        </mxCell>
        <mxCell id="ZmkryA6pYVP38JDTjNkh-160" value="" style="endArrow=none;html=1;rounded=0;entryX=0.5;entryY=1;entryDx=0;entryDy=0;exitX=0.5;exitY=1;exitDx=0;exitDy=0;" edge="1" parent="1">
          <mxGeometry width="50" height="50" relative="1" as="geometry">
            <mxPoint x="400" y="2120" as="sourcePoint" />
            <mxPoint x="560" y="2080" as="targetPoint" />
            <Array as="points">
              <mxPoint x="400" y="2090" />
              <mxPoint x="560" y="2090" />
            </Array>
          </mxGeometry>
        </mxCell>
        <mxCell id="ZmkryA6pYVP38JDTjNkh-161" value="Координаты&amp;nbsp;&lt;div&gt;упакованного&lt;div&gt;&amp;nbsp;в ems контейнера&lt;div&gt;cont.x0, cont.y0, cont.z0,&lt;/div&gt;&lt;div&gt;x, y, z&lt;/div&gt;&lt;/div&gt;&lt;/div&gt;" style="shape=parallelogram;perimeter=parallelogramPerimeter;whiteSpace=wrap;html=1;dashed=0;" vertex="1" parent="1">
          <mxGeometry x="480" y="2010" width="200" height="70" as="geometry" />
        </mxCell>
        <mxCell id="ZmkryA6pYVP38JDTjNkh-162" value="Конец" style="html=1;dashed=0;whiteSpace=wrap;shape=mxgraph.dfd.start" vertex="1" parent="1">
          <mxGeometry x="320" y="2120" width="160" height="30" as="geometry" />
        </mxCell>
        <mxCell id="ZmkryA6pYVP38JDTjNkh-163" value="" style="endArrow=none;html=1;rounded=0;entryX=0.5;entryY=0.5;entryDx=0;entryDy=15;entryPerimeter=0;exitX=0.5;exitY=0;exitDx=0;exitDy=0;" edge="1" parent="1">
          <mxGeometry width="50" height="50" relative="1" as="geometry">
            <mxPoint x="400" y="2120" as="sourcePoint" />
            <mxPoint x="400" y="2090" as="targetPoint" />
          </mxGeometry>
        </mxCell>
        <mxCell id="ZmkryA6pYVP38JDTjNkh-164" value="" style="endArrow=none;html=1;rounded=0;entryX=0.5;entryY=0.5;entryDx=0;entryDy=15;entryPerimeter=0;exitX=0.5;exitY=0;exitDx=0;exitDy=0;" edge="1" parent="1">
          <mxGeometry width="50" height="50" relative="1" as="geometry">
            <mxPoint x="400.5" y="1699.9999999999998" as="sourcePoint" />
            <mxPoint x="400" y="1670" as="targetPoint" />
          </mxGeometry>
        </mxCell>
      </root>
    </mxGraphModel>
  </diagram>
</mxfile>
